<svg xmlns="http://www.w3.org/2000/svg" version="1.1" xmlns:xlink="http://www.w3.org/1999/xlink" xmlns:svgjs="http://svgjs.dev/svgjs" width="1500" height="265" viewBox="0 0 1500 265"><g transform="matrix(1,0,0,1,-0.9090909090909918,0.8482424113715865)"><svg viewBox="0 0 396 70" data-background-color="#1abc9c" preserveAspectRatio="xMidYMid meet" height="265" width="1500" xmlns="http://www.w3.org/2000/svg" xmlns:xlink="http://www.w3.org/1999/xlink"><g id="tight-bounds" transform="matrix(1,0,0,1,0.2400000000000091,-0.2240640331924908)"><svg viewBox="0 0 395.52 70.44812806638497" height="70.44812806638497" width="395.52"><g><svg viewBox="0 0 460.26907908899057 81.9809239195446" height="70.44812806638497" width="395.52"><g transform="matrix(1,0,0,1,0,11.33021452144213)"><svg viewBox="0 0 395.52 59.320494876660334" height="59.320494876660334" width="395.52"><g id="textblocktransform"><svg viewBox="0 0 395.52 59.320494876660334" height="59.320494876660334" width="395.52" id="textblock"><g><svg viewBox="0 0 395.52 59.320494876660334" height="59.320494876660334" width="395.52"><g transform="matrix(1,0,0,1,0,0)"><svg width="395.52" viewBox="1.37 -38.09 321.62 48.25" height="59.320494876660334" data-palette-color="#080904"><path d="M16.09 0L1.37 0 1.37-4.27 5.15-5 5.15-30.52 1.37-31.25 1.37-35.55 16.09-35.55 16.09-31.25 12.28-30.52 12.28-20.26 26.78-20.26 26.78-30.52 22.97-31.25 22.97-35.55 26.78-35.55 33.89-35.55 37.7-35.55 37.7-31.25 33.89-30.52 33.89-5 37.7-4.27 37.7 0 22.97 0 22.97-4.27 26.78-5 26.78-14.77 12.28-14.77 12.28-5 16.09-4.27 16.09 0ZM53.24 0.51L53.24 0.51Q49.46 0.51 46.63-1.16 43.8-2.83 42.25-5.76 40.7-8.69 40.7-12.45L40.7-12.45 40.7-13.43Q40.7-17.36 42.16-20.4 43.63-23.44 46.3-25.18 48.97-26.93 52.61-26.9L52.61-26.9Q56.2-26.9 58.64-25.49 61.08-24.07 62.35-21.41 63.62-18.75 63.62-14.97L63.62-14.97 63.62-11.08 48.09-11.08 48.04-10.94Q48.19-9.2 48.91-7.85 49.63-6.49 50.95-5.73 52.27-4.96 54.15-4.96L54.15-4.96Q56.1-4.96 57.8-5.46 59.49-5.96 61.11-6.93L61.11-6.93 63.03-2.54Q61.4-1.22 58.92-0.35 56.44 0.51 53.24 0.51ZM48.07-15.92L48.14-15.8 56.96-15.8 56.96-16.43Q56.96-18.04 56.53-19.2 56.1-20.36 55.16-21 54.22-21.63 52.73-21.63L52.73-21.63Q51.32-21.63 50.34-20.89 49.36-20.14 48.81-18.85 48.26-17.55 48.07-15.92L48.07-15.92ZM75.75 0.51L75.75 0.51Q71.82 0.51 69.5-1.6 67.18-3.71 67.18-7.35L67.18-7.35Q67.18-9.84 68.54-11.72 69.89-13.6 72.54-14.67 75.19-15.75 79.07-15.75L79.07-15.75 82.56-15.75 82.56-17.7Q82.56-19.6 81.45-20.79 80.34-21.97 78.12-21.97L78.12-21.97Q76.97-21.97 76.06-21.69 75.14-21.41 74.41-20.9L74.41-20.9 73.85-17.41 68.72-17.41 68.62-24.27Q70.7-25.44 73.12-26.17 75.53-26.9 78.51-26.9L78.51-26.9Q83.69-26.9 86.69-24.5 89.69-22.09 89.69-17.63L89.69-17.63 89.69-6.74Q89.69-6.2 89.7-5.68 89.72-5.15 89.79-4.66L89.79-4.66 92.55-4.27 92.55 0 83.71 0Q83.44-0.68 83.17-1.46 82.91-2.25 82.78-3.03L82.78-3.03Q81.51-1.42 79.79-0.45 78.07 0.51 75.75 0.51ZM77.66-4.76L77.66-4.76Q79.15-4.76 80.49-5.43 81.83-6.1 82.56-7.2L82.56-7.2 82.56-11.38 79.05-11.38Q76.7-11.38 75.5-10.3 74.29-9.23 74.29-7.71L74.29-7.71Q74.29-6.3 75.18-5.53 76.07-4.76 77.66-4.76ZM108.71 0L94.69 0 94.69-4.27 98.14-5 98.14-33.06 94.33-33.79 94.33-38.09 105.27-38.09 105.27-5 108.71-4.27 108.71 0ZM121.4 0.51L121.4 0.51Q117.71 0.51 115.72-1.51 113.74-3.54 113.74-7.93L113.74-7.93 113.74-21.41 110.1-21.41 110.1-26.42 113.74-26.42 113.74-32.89 120.84-32.89 120.84-26.42 125.7-26.42 125.7-21.41 120.84-21.41 120.84-7.96Q120.84-6.42 121.49-5.76 122.13-5.1 123.26-5.1L123.26-5.1Q123.84-5.1 124.53-5.19 125.21-5.27 125.7-5.37L125.7-5.37 126.31-0.22Q125.21 0.1 123.93 0.31 122.65 0.51 121.4 0.51ZM142.2 0L128.58 0 128.58-4.27 132.02-5 132.02-33.06 128.21-33.79 128.21-38.09 139.12-38.09 139.12-23.05Q140.37-24.88 142.21-25.89 144.05-26.9 146.4-26.9L146.4-26.9Q150.38-26.9 152.71-24.26 155.04-21.61 155.04-16.06L155.04-16.06 155.04-5 158.46-4.27 158.46 0 144.84 0 144.84-4.27 147.91-5 147.91-16.11Q147.91-18.97 146.84-20.17 145.76-21.36 143.69-21.36L143.69-21.36Q142.25-21.36 141.06-20.76 139.88-20.17 139.12-19.02L139.12-19.02 139.12-5 142.2-4.27 142.2 0ZM175.08 0.51L175.08 0.51Q171.15 0.51 167.93-0.37 164.71-1.25 161.58-3.42L161.58-3.42 161.58-12.01 167.1-12.01 167.86-6.96Q168.95-6.03 170.88-5.46 172.81-4.88 175.08-4.88L175.08-4.88Q177.01-4.88 178.34-5.42 179.67-5.96 180.37-6.95 181.06-7.93 181.06-9.28L181.06-9.28Q181.06-10.55 180.44-11.54 179.82-12.52 178.39-13.34 176.96-14.16 174.52-14.92L174.52-14.92Q170.3-16.16 167.53-17.64 164.76-19.12 163.38-21.18 162-23.24 162-26.15L162-26.15Q162-29.03 163.6-31.24 165.19-33.45 168.03-34.72 170.86-35.99 174.57-36.04L174.57-36.04Q178.67-36.08 181.83-35.06 184.99-34.03 187.29-32.2L187.29-32.2 187.29-24.19 181.94-24.19 181.02-29.08Q180.09-29.66 178.51-30.1 176.94-30.54 174.94-30.54L174.94-30.54Q173.23-30.54 171.92-30.03 170.61-29.52 169.86-28.54 169.1-27.56 169.1-26.17L169.1-26.17Q169.1-24.98 169.76-24.08 170.42-23.19 171.97-22.4 173.52-21.61 176.25-20.7L176.25-20.7Q182.14-19.07 185.18-16.38 188.22-13.7 188.22-9.33L188.22-9.33Q188.22-6.3 186.58-4.09 184.95-1.88 181.99-0.68 179.04 0.51 175.08 0.51ZM205.01 10.16L191.02 10.16 191.02 5.86 194.46 5.13 194.46-21.39 190.66-22.12 190.66-26.42 201.01-26.42 201.35-23.34Q202.52-25.05 204.18-25.98 205.84-26.9 208.14-26.9L208.14-26.9Q211.34-26.9 213.61-25.16 215.88-23.41 217.08-20.29 218.29-17.16 218.29-12.99L218.29-12.99 218.29-12.48Q218.29-8.57 217.08-5.65 215.88-2.73 213.59-1.11 211.31 0.51 208.09 0.51L208.09 0.51Q205.96 0.51 204.34-0.26 202.72-1.03 201.57-2.51L201.57-2.51 201.57 5.13 205.01 5.86 205.01 10.16ZM205.96-4.96L205.96-4.96Q208.7-4.96 209.93-6.98 211.16-9.01 211.16-12.48L211.16-12.48 211.16-12.99Q211.16-15.5 210.6-17.37 210.04-19.24 208.88-20.3 207.72-21.36 205.92-21.36L205.92-21.36Q204.45-21.36 203.34-20.7 202.23-20.04 201.57-18.82L201.57-18.82 201.57-7.25Q202.23-6.13 203.34-5.54 204.45-4.96 205.96-4.96ZM234.21 0L220.59 0 220.59-4.27 224.03-5 224.03-33.06 220.22-33.79 220.22-38.09 231.13-38.09 231.13-23.05Q232.38-24.88 234.22-25.89 236.06-26.9 238.41-26.9L238.41-26.9Q242.39-26.9 244.72-24.26 247.05-21.61 247.05-16.06L247.05-16.06 247.05-5 250.47-4.27 250.47 0 236.85 0 236.85-4.27 239.92-5 239.92-16.11Q239.92-18.97 238.85-20.17 237.77-21.36 235.7-21.36L235.7-21.36Q234.26-21.36 233.07-20.76 231.89-20.17 231.13-19.02L231.13-19.02 231.13-5 234.21-4.27 234.21 0ZM265.16 0.51L265.16 0.51Q261.38 0.51 258.55-1.16 255.71-2.83 254.16-5.76 252.61-8.69 252.61-12.45L252.61-12.45 252.61-13.43Q252.61-17.36 254.08-20.4 255.54-23.44 258.22-25.18 260.89-26.93 264.53-26.9L264.53-26.9Q268.12-26.9 270.56-25.49 273-24.07 274.27-21.41 275.54-18.75 275.54-14.97L275.54-14.97 275.54-11.08 260.01-11.08 259.96-10.94Q260.11-9.2 260.83-7.85 261.55-6.49 262.87-5.73 264.19-4.96 266.07-4.96L266.07-4.96Q268.02-4.96 269.72-5.46 271.41-5.96 273.02-6.93L273.02-6.93 274.95-2.54Q273.32-1.22 270.84-0.35 268.36 0.51 265.16 0.51ZM259.99-15.92L260.06-15.8 268.87-15.8 268.87-16.43Q268.87-18.04 268.45-19.2 268.02-20.36 267.08-21 266.14-21.63 264.65-21.63L264.65-21.63Q263.23-21.63 262.26-20.89 261.28-20.14 260.73-18.85 260.18-17.55 259.99-15.92L259.99-15.92ZM293.33 0L279.37 0 279.37-4.27 282.79-5 282.79-21.39 279-22.12 279-26.42 289.43-26.42 289.7-23.14 289.75-22.56Q290.72-24.71 292.16-25.81 293.6-26.9 295.6-26.9L295.6-26.9Q296.24-26.9 297-26.79 297.75-26.68 298.34-26.51L298.34-26.51 297.58-19.95 294.04-20.14Q292.53-20.21 291.59-19.63 290.65-19.04 289.92-17.94L289.92-17.94 289.92-5 293.33-4.27 293.33 0ZM312.62 0.51L312.62 0.51Q308.83 0.51 306-1.16 303.17-2.83 301.62-5.76 300.07-8.69 300.07-12.45L300.07-12.45 300.07-13.43Q300.07-17.36 301.54-20.4 303-23.44 305.67-25.18 308.35-26.93 311.98-26.9L311.98-26.9Q315.57-26.9 318.01-25.49 320.46-24.07 321.73-21.41 322.99-18.75 322.99-14.97L322.99-14.97 322.99-11.08 307.47-11.08 307.42-10.94Q307.57-9.2 308.29-7.85 309.01-6.49 310.32-5.73 311.64-4.96 313.52-4.96L313.52-4.96Q315.48-4.96 317.17-5.46 318.87-5.96 320.48-6.93L320.48-6.93 322.41-2.54Q320.77-1.22 318.3-0.35 315.82 0.51 312.62 0.51ZM307.44-15.92L307.52-15.8 316.33-15.8 316.33-16.43Q316.33-18.04 315.9-19.2 315.48-20.36 314.54-21 313.6-21.63 312.11-21.63L312.11-21.63Q310.69-21.63 309.71-20.89 308.74-20.14 308.19-18.85 307.64-17.55 307.44-15.92L307.44-15.92Z" opacity="1" transform="matrix(1,0,0,1,0,0)" fill="#080904" class="wordmark-text-0" data-fill-palette-color="primary" id="text-0"></path></svg></g></svg></g></svg></g></svg></g><g transform="matrix(1,0,0,1,409.52414514850244,0)"><svg viewBox="0 0 50.744933940488124 81.9809239195446" height="81.9809239195446" width="50.744933940488124"><g><svg xmlns="http://www.w3.org/2000/svg" xmlns:xlink="http://www.w3.org/1999/xlink" version="1.1" x="0" y="0" viewBox="22.146 5.001 55.708 89.999" enable-background="new 0 0 100 100" xml:space="preserve" height="81.9809239195446" width="50.744933940488124" class="icon-icon-0" data-fill-palette-color="accent" id="icon-0"><g fill="#412e27" data-fill-palette-color="accent"><path d="M38.927 80V45.5H77.854C77.705 32 67.428 23.501 58.428 19.728V10.693C58.428 7.056 56.418 5.001 52.782 5.001H47.449C43.812 5.001 40.428 7.056 40.428 10.693V19.728C31.428 23.538 22.146 33.812 22.146 45.895 22.146 46.106 22.299 46.312 22.302 46.52 22.293 46.723 22.427 46.932 22.427 47.141V82.933C22.426 89.598 27.765 95 34.427 95H65.797C72.458 95 76.426 89.598 76.426 82.934V80z" fill="#412e27" data-fill-palette-color="accent"></path></g><path d="M70.249 59H62.928V52.471C62.928 50.485 60.499 48.809 58.428 48.809 56.354 48.809 53.928 50.485 53.928 52.471V59H47.341C45.321 59 43.679 61.504 43.679 63.5S45.322 68 47.341 68H53.928V74.279C53.928 76.263 56.354 77.939 58.428 77.939 60.499 77.939 62.928 76.263 62.928 74.279V68H70.249C72.268 68 73.908 65.496 73.908 63.5S72.268 59 70.249 59" fill="#412e27" data-fill-palette-color="accent"></path></svg></g></svg></g></svg></g><defs></defs></svg><rect width="395.52" height="70.44812806638497" fill="none" stroke="none" visibility="hidden"></rect></g></svg></g></svg>